<?xml version="1.0" standalone="no"?>
<!DOCTYPE svg PUBLIC "-//W3C//DTD SVG 20010904//EN"
 "http://www.w3.org/TR/2001/REC-SVG-20010904/DTD/svg10.dtd">
<svg version="1.0" xmlns="http://www.w3.org/2000/svg"
 width="2000.000000pt" height="1825.000000pt" viewBox="0 0 2000.000000 1825.000000"
 preserveAspectRatio="xMidYMid meet">

<g transform="translate(0.000000,1825.000000) scale(0.100000,-0.100000)"
fill="#000000" stroke="none">
<path d="M5971 11538 c-8 -13 -21 -33 -29 -45 l-14 -23 596 0 596 0 0 45 0 45
-568 0 -567 0 -14 -22z"/>
<path d="M8685 11523 c-14 -21 -25 -41 -25 -45 0 -5 271 -7 603 -6 l602 3 3
43 3 42 -580 0 -580 0 -26 -37z"/>
<path d="M11910 11518 l-31 -43 778 -3 c428 -1 784 0 791 3 7 2 12 22 12 45
l0 40 -759 0 -759 0 -32 -42z"/>
<path d="M13840 11515 l0 -45 484 0 484 0 24 33 c13 17 28 38 32 45 6 9 -99
12 -508 12 l-516 0 0 -45z"/>
<path d="M15346 11520 c-14 -22 -26 -42 -26 -45 0 -3 320 -5 710 -5 l710 0 0
45 0 45 -684 0 -683 0 -27 -40z"/>
<path d="M5893 11428 c-5 -7 -31 -43 -57 -80 l-48 -68 666 0 666 0 0 80 0 80
-609 0 c-475 0 -611 -3 -618 -12z"/>
<path d="M8597 11403 c-14 -21 -39 -57 -57 -80 l-32 -43 681 0 681 0 0 80 0
80 -624 0 -623 0 -26 -37z"/>
<path d="M11834 11413 c-12 -16 -38 -52 -58 -80 l-38 -53 861 0 861 0 0 80 0
80 -803 0 -803 0 -20 -27z"/>
<path d="M13840 11360 l0 -80 418 1 417 0 53 74 c28 40 52 76 52 79 0 3 -211
6 -470 6 l-470 0 0 -80z"/>
<path d="M15252 11388 c-21 -29 -47 -65 -56 -80 l-18 -28 781 0 781 0 0 80 0
80 -725 0 -724 0 -39 -52z"/>
<path d="M5701 11160 c-28 -39 -51 -73 -51 -75 0 -3 331 -5 735 -5 l735 0 0
75 0 75 -684 0 -684 0 -51 -70z"/>
<path d="M8422 11160 c-28 -38 -52 -72 -52 -75 0 -3 338 -5 750 -5 l750 0 0
75 0 75 -698 0 -698 0 -52 -70z"/>
<path d="M11651 11160 c-28 -39 -51 -73 -51 -75 0 -3 419 -5 930 -5 l930 0 0
75 0 75 -879 0 -879 0 -51 -70z"/>
<path d="M13840 11155 l0 -75 344 0 344 0 51 70 c28 39 51 73 51 75 0 3 -178
5 -395 5 l-395 0 0 -75z"/>
<path d="M15091 11163 c-28 -38 -50 -71 -51 -75 0 -5 383 -8 850 -8 l850 0 0
75 0 75 -800 0 -800 0 -49 -67z"/>
<path d="M5558 10960 c-27 -37 -48 -71 -48 -74 0 -3 362 -6 805 -6 l805 0 0
75 0 75 -757 0 -758 -1 -47 -69z"/>
<path d="M8274 10957 l-52 -72 812 -3 c446 -1 817 0 824 3 8 3 12 28 12 75 l0
70 -772 0 -773 -1 -51 -72z"/>
<path d="M11508 10960 c-27 -37 -48 -71 -48 -74 0 -3 449 -5 998 -4 l997 3 3
73 3 72 -953 0 -953 -1 -47 -69z"/>
<path d="M13840 10955 l0 -75 273 0 c269 1 272 1 288 23 9 12 33 46 53 75 l38
52 -326 0 -326 0 0 -75z"/>
<path d="M14943 10955 l-53 -75 925 0 925 0 0 75 0 75 -872 0 -873 -1 -52 -74z"/>
<path d="M5424 10773 c-22 -32 -44 -64 -48 -70 -6 -10 171 -13 868 -13 l876 0
0 70 0 70 -828 0 -828 0 -40 -57z"/>
<path d="M8154 10793 c-15 -21 -39 -53 -52 -70 l-24 -33 896 0 896 0 0 70 0
70 -844 0 -844 0 -28 -37z"/>
<path d="M11367 10765 c-26 -36 -47 -67 -47 -70 0 -3 482 -5 1070 -5 l1070 0
0 70 0 70 -1023 0 -1023 0 -47 -65z"/>
<path d="M13840 10755 l0 -75 200 0 200 0 49 68 c28 37 50 70 51 75 0 4 -112
7 -250 7 l-250 0 0 -75z"/>
<path d="M14840 10807 c-9 -12 -33 -46 -54 -74 l-38 -53 996 0 996 0 0 75 0
75 -942 0 -943 -1 -15 -22z"/>
<path d="M5271 10560 l-51 -70 950 0 950 0 0 70 0 70 -899 0 -899 0 -51 -70z"/>
<path d="M7994 10572 c-22 -31 -44 -63 -48 -69 -6 -10 189 -13 959 -13 l966 0
-3 68 -3 67 -915 2 -915 2 -41 -57z"/>
<path d="M11229 10573 c-23 -32 -46 -64 -52 -70 -7 -10 221 -13 1137 -13
l1147 0 -3 68 -3 67 -1092 3 -1092 2 -42 -57z"/>
<path d="M14720 10550 l0 -70 570 0 570 0 0 70 0 70 -570 0 -570 0 0 -70z"/>
<path d="M5133 10368 c-22 -29 -43 -59 -47 -65 -6 -10 200 -13 1013 -13 l1021
0 0 65 0 65 -974 0 -974 0 -39 -52z"/>
<path d="M7859 10388 c-13 -18 -34 -48 -47 -65 l-24 -33 1041 0 1041 0 0 65 0
65 -994 0 -995 0 -22 -32z"/>
<path d="M11089 10382 c-14 -20 -34 -49 -44 -64 l-17 -28 583 0 584 0 47 65
48 65 -588 0 -587 0 -26 -38z"/>
<path d="M12310 10355 l0 -65 575 0 575 0 0 65 0 65 -575 0 -575 0 0 -65z"/>
<path d="M14720 10355 l0 -65 570 0 570 0 0 65 0 65 -570 0 -570 0 0 -65z"/>
<path d="M5000 10183 c-14 -21 -33 -50 -43 -65 l-19 -28 1091 0 1091 0 0 65 0
65 -1047 0 -1048 0 -25 -37z"/>
<path d="M7694 10158 l-46 -63 1098 -3 c605 -1 1105 0 1112 3 8 3 12 26 12 65
l0 60 -1065 0 -1065 0 -46 -62z"/>
<path d="M10932 10160 c-23 -32 -42 -61 -42 -65 0 -3 261 -5 579 -5 l579 0 30
38 c16 20 37 49 47 65 l17 27 -584 0 -584 0 -42 -60z"/>
<path d="M12310 10155 l0 -65 575 0 575 0 0 65 0 65 -575 0 -575 0 0 -65z"/>
<path d="M14720 10150 l0 -60 570 0 570 0 0 60 0 60 -570 0 -570 0 0 -60z"/>
<path d="M4841 9960 l-42 -60 577 -2 c564 -3 577 -3 590 17 12 17 14 17 14 2
0 -16 37 -17 570 -17 l570 0 0 60 0 60 -1119 0 -1118 0 -42 -60z"/>
<path d="M7551 9963 l-41 -58 581 -3 c421 -1 586 1 595 9 10 8 14 8 14 0 0 -8
159 -11 585 -11 l586 0 -3 58 -3 57 -1137 3 -1136 2 -41 -57z"/>
<path d="M10791 9965 c-22 -30 -41 -57 -41 -60 0 -3 262 -5 583 -5 l582 1 33
44 c18 25 35 52 38 60 5 13 -62 15 -574 15 l-580 0 -41 -55z"/>
<path d="M12317 10013 c-4 -3 -7 -30 -7 -60 l0 -53 575 0 576 0 -3 58 -3 57
-566 3 c-311 1 -569 -1 -572 -5z"/>
<path d="M14720 9950 l0 -60 570 0 570 0 0 60 0 60 -570 0 -570 0 0 -60z"/>
<path d="M4696 9758 l-37 -53 568 -3 c312 -1 573 0 579 2 6 2 27 27 47 55 l37
51 -579 0 -578 0 -37 -52z"/>
<path d="M5980 9755 l0 -55 570 0 570 0 0 55 0 55 -570 0 -570 0 0 -55z"/>
<path d="M7402 9758 l-39 -53 586 -3 586 -2 20 25 c11 13 29 38 38 55 l18 30
-585 0 -585 0 -39 -52z"/>
<path d="M8700 9755 l0 -55 585 0 585 0 0 55 0 55 -585 0 -585 0 0 -55z"/>
<path d="M10637 9755 l-38 -55 585 0 584 0 36 49 c20 27 36 51 36 55 0 3 -262
6 -582 6 l-583 -1 -38 -54z"/>
<path d="M12310 9755 l0 -55 575 0 575 0 0 55 0 55 -575 0 -575 0 0 -55z"/>
<path d="M14720 9750 l0 -60 570 0 570 0 0 60 0 60 -570 0 -570 0 0 -60z"/>
<path d="M4555 9564 c-19 -26 -35 -51 -35 -55 0 -5 258 -9 573 -9 l572 0 38
55 38 55 -575 0 -575 0 -36 -46z"/>
<path d="M5980 9555 l0 -55 570 0 570 0 0 55 0 55 -570 0 -570 0 0 -55z"/>
<path d="M7257 9560 c-20 -27 -37 -52 -37 -55 0 -3 264 -5 588 -5 l587 1 38
54 38 55 -588 0 -589 0 -37 -50z"/>
<path d="M8702 9558 l3 -53 580 0 580 0 3 53 3 52 -586 0 -586 0 3 -52z"/>
<path d="M10497 9560 c-20 -27 -37 -52 -37 -55 0 -3 262 -5 583 -5 l582 0 30
42 c17 23 34 48 38 55 7 11 -95 13 -575 13 l-584 0 -37 -50z"/>
<path d="M12312 9558 l3 -53 573 -3 572 -2 0 55 0 55 -576 0 -575 0 3 -52z"/>
<path d="M15288 9603 l-568 -3 0 -55 0 -55 570 0 570 0 0 60 c0 33 -1 59 -2
58 -2 -2 -258 -4 -570 -5z"/>
<path d="M4413 9365 c-18 -24 -33 -47 -33 -50 0 -3 258 -5 573 -5 l574 0 31
44 c18 24 32 47 32 50 0 3 -258 6 -572 6 l-573 -1 -32 -44z"/>
<path d="M5980 9360 l0 -50 1138 0 1139 0 31 44 c18 24 32 47 32 50 0 3 -264
6 -586 6 -547 0 -588 -1 -600 -17 -13 -17 -13 -17 -14 0 0 16 -34 17 -570 17
l-570 0 0 -50z"/>
<path d="M8700 9360 l0 -50 585 0 585 0 0 50 0 50 -585 0 -585 0 0 -50z"/>
<path d="M10360 9373 c-14 -21 -29 -43 -33 -50 -6 -10 108 -13 575 -13 l584 0
37 50 37 50 -587 0 -588 0 -25 -37z"/>
<path d="M12310 9360 l0 -50 575 0 575 0 0 50 0 50 -575 0 -575 0 0 -50z"/>
<path d="M14720 9350 l0 -50 570 -2 570 -3 0 53 0 52 -570 0 -570 0 0 -50z"/>
<path d="M5980 9158 l0 -48 1068 0 1067 0 28 39 c15 22 27 42 27 45 0 3 -493
7 -1095 8 l-1095 3 0 -47z"/>
<path d="M4262 9155 l-33 -45 575 0 575 0 24 33 c13 17 27 38 31 45 6 9 -110
12 -566 12 l-573 -1 -33 -44z"/>
<path d="M8700 9155 l0 -45 585 0 585 0 0 45 0 45 -585 0 -585 0 0 -45z"/>
<path d="M10210 9162 c-14 -20 -26 -40 -28 -44 -2 -5 259 -8 580 -8 l583 0 25
38 c14 20 27 40 28 45 2 4 -259 7 -580 7 l-583 0 -25 -38z"/>
<path d="M12310 9155 l0 -45 575 0 575 0 0 45 0 45 -575 0 -575 0 0 -45z"/>
<path d="M14720 9145 l0 -45 570 0 570 0 0 45 0 45 -570 0 -570 0 0 -45z"/>
<path d="M4120 8955 l-31 -45 573 0 573 1 33 44 33 45 -575 0 -575 0 -31 -45z"/>
<path d="M5980 8955 l0 -45 994 0 994 0 31 39 c17 21 31 42 31 45 0 3 -461 6
-1025 6 l-1025 0 0 -45z"/>
<path d="M8700 8955 l0 -45 585 0 585 0 0 45 0 45 -585 0 -585 0 0 -45z"/>
<path d="M10061 8955 l-32 -45 584 0 585 0 24 33 c13 17 28 38 32 45 6 9 -112
12 -577 12 l-584 0 -32 -45z"/>
<path d="M12310 8955 l0 -45 575 0 575 0 0 45 0 45 -575 0 -575 0 0 -45z"/>
<path d="M14720 8945 l0 -45 570 0 570 0 0 45 0 45 -570 0 -570 0 0 -45z"/>
<path d="M3980 8762 c-14 -20 -26 -40 -28 -44 -2 -5 253 -8 566 -8 l570 0 24
33 c13 17 28 38 32 45 6 9 -110 12 -566 12 l-573 0 -25 -38z"/>
<path d="M5980 8755 l0 -45 925 0 924 0 31 45 31 45 -956 0 -955 0 0 -45z"/>
<path d="M8702 8758 l3 -43 580 0 580 0 3 43 3 42 -586 0 -586 0 3 -42z"/>
<path d="M9921 8761 c-17 -21 -31 -42 -31 -45 0 -3 261 -6 579 -6 l580 0 30
37 c17 21 31 41 31 45 0 5 -261 8 -579 8 l-579 0 -31 -39z"/>
<path d="M12312 8758 l3 -43 573 -3 572 -2 0 45 0 45 -576 0 -575 0 3 -42z"/>
<path d="M14720 8745 l0 -45 570 0 570 0 0 45 0 45 -570 0 -570 0 0 -45z"/>
<path d="M3836 8560 l-26 -40 569 0 569 0 26 34 c14 19 26 37 26 40 0 3 -256
6 -569 6 l-568 0 -27 -40z"/>
<path d="M5980 8560 l0 -40 858 0 857 0 23 35 c12 19 22 37 22 40 0 3 -396 5
-880 5 l-880 0 0 -40z"/>
<path d="M8707 8593 c-4 -3 -7 -21 -7 -40 l0 -33 1108 0 1108 0 20 28 c11 15
24 33 28 40 6 9 -221 12 -1122 12 -621 0 -1132 -3 -1135 -7z"/>
<path d="M11454 8573 c-11 -16 -24 -34 -28 -40 -6 -10 200 -13 1013 -13 l1021
0 0 40 0 40 -993 0 -993 0 -20 -27z"/>
<path d="M14720 8540 l0 -40 570 0 570 0 0 40 0 40 -570 0 -570 0 0 -40z"/>
<path d="M9757 8392 l-1058 -2 3 -33 3 -32 1032 -3 1032 -2 27 35 c15 20 25
37 23 38 -2 1 -480 1 -1062 -1z"/>
<path d="M3691 8358 l-20 -33 562 -3 c309 -1 567 0 572 2 6 2 18 18 28 35 l18
31 -569 0 -570 0 -21 -32z"/>
<path d="M5980 8355 l0 -35 784 0 785 0 20 29 c12 16 21 32 21 35 0 3 -362 6
-805 6 l-805 0 0 -35z"/>
<path d="M11296 8355 l-27 -35 1095 0 1096 0 0 35 0 35 -1069 0 -1069 0 -26
-35z"/>
<path d="M14720 8345 l0 -35 570 0 570 0 0 35 0 35 -570 0 -570 0 0 -35z"/>
<path d="M3546 8155 l-27 -35 572 2 571 3 26 33 25 32 -571 0 -570 0 -26 -35z"/>
<path d="M5980 8155 l0 -35 713 0 713 0 22 30 c12 16 22 32 22 35 0 3 -331 5
-735 5 l-735 0 0 -35z"/>
<path d="M8700 8155 l0 -35 964 0 965 0 20 29 c12 16 21 32 21 35 0 3 -443 6
-985 6 l-985 0 0 -35z"/>
<path d="M11160 8168 c-8 -13 -19 -28 -23 -35 -6 -11 223 -13 1158 -13 l1165
0 0 35 0 35 -1143 0 -1142 0 -15 -22z"/>
<path d="M14720 8145 l0 -35 570 0 570 0 0 35 0 35 -570 0 -570 0 0 -35z"/>
<path d="M3404 7958 l-27 -33 564 -3 c310 -1 569 0 574 2 6 2 18 18 28 35 l18
31 -565 0 -564 0 -28 -32z"/>
<path d="M5980 7955 l0 -35 638 0 639 0 20 23 c11 12 23 28 27 35 6 9 -129 12
-658 12 l-666 0 0 -35z"/>
<path d="M8704 7976 c-3 -8 -4 -23 -2 -33 3 -17 44 -18 892 -21 973 -2 893 -7
927 51 9 16 -36 17 -901 17 -784 0 -911 -2 -916 -14z"/>
<path d="M11011 7961 c-12 -16 -21 -32 -21 -35 0 -3 555 -5 1233 -4 l1232 3 0
30 0 30 -1212 3 -1212 2 -20 -29z"/>
<path d="M14720 7940 l0 -30 570 0 570 0 0 30 0 30 -570 0 -570 0 0 -30z"/>
<path d="M3266 7765 c-5 -13 61 -15 558 -15 489 0 565 2 576 15 11 13 -52 15
-558 15 -497 0 -571 -2 -576 -15z"/>
<path d="M5980 7765 c0 -13 72 -15 584 -15 510 0 585 2 590 15 5 13 -64 15
-584 15 -518 0 -590 -2 -590 -15z"/>
<path d="M8700 7765 c0 -13 99 -15 829 -15 724 0 830 2 841 15 11 13 -82 15
-829 15 -741 0 -841 -2 -841 -15z"/>
<path d="M10866 7765 c-5 -13 143 -15 1294 -15 1149 0 1300 2 1300 15 0 13
-150 15 -1294 15 -1141 0 -1295 -2 -1300 -15z"/>
<path d="M14720 7755 c0 -13 70 -15 570 -15 500 0 570 2 570 15 0 13 -70 15
-570 15 -500 0 -570 -2 -570 -15z"/>
<path d="M5850 7277 c-30 -7 -70 -21 -89 -31 -50 -27 -114 -95 -140 -151 -29
-60 -39 -170 -21 -233 39 -145 240 -214 404 -139 224 103 264 440 63 532 -65
30 -146 38 -217 22z m141 -129 c72 -40 90 -132 43 -227 -36 -72 -88 -106 -164
-106 -92 1 -139 49 -140 143 -1 156 139 259 261 190z"/>
<path d="M6969 7281 c-112 -37 -171 -119 -150 -211 13 -57 34 -77 127 -120 65
-30 83 -43 88 -64 20 -80 -98 -113 -180 -51 l-30 23 -48 -42 -48 -42 43 -28
c81 -54 179 -68 270 -39 94 31 149 113 133 201 -9 48 -74 112 -133 132 -90 29
-116 79 -65 119 35 27 93 27 128 0 l26 -20 45 37 c50 43 49 52 -19 86 -44 22
-145 33 -187 19z"/>
<path d="M10035 7281 c-100 -24 -199 -111 -234 -206 -29 -75 -31 -181 -6 -243
37 -90 151 -150 265 -139 66 6 149 39 180 72 l22 23 -38 41 c-33 37 -38 40
-53 27 -75 -68 -206 -50 -241 34 -21 51 -9 143 26 193 58 83 180 113 239 57
l24 -22 48 46 48 46 -30 24 c-54 44 -170 66 -250 47z"/>
<path d="M10575 7281 c-100 -26 -200 -115 -235 -207 -29 -78 -27 -193 4 -254
60 -118 220 -162 364 -100 28 12 60 33 73 46 l23 24 -35 38 c-19 20 -35 39
-37 41 -1 2 -12 -4 -25 -15 -53 -47 -115 -56 -176 -24 -115 58 -85 264 47 322
57 25 123 20 157 -12 l25 -23 44 39 c24 21 45 44 45 51 1 13 -38 42 -84 62
-36 16 -150 23 -190 12z"/>
<path d="M11506 7275 c-80 -28 -126 -79 -133 -148 -11 -91 21 -135 128 -177
68 -27 89 -46 89 -81 0 -72 -108 -93 -178 -34 l-28 24 -45 -36 c-24 -19 -46
-37 -48 -39 -9 -9 34 -44 79 -63 71 -30 146 -37 213 -17 96 28 147 89 147 176
0 78 -39 121 -148 165 -61 25 -85 54 -73 89 17 47 94 60 150 25 l34 -21 41 42
41 41 -25 19 c-61 47 -168 62 -244 35z"/>
<path d="M11972 7272 c-84 -30 -132 -90 -132 -165 0 -76 38 -122 129 -157 70
-26 91 -46 91 -81 0 -72 -108 -93 -178 -34 l-29 24 -46 -37 c-25 -20 -46 -40
-47 -45 0 -15 93 -66 141 -76 72 -16 111 -14 172 9 86 32 127 88 127 174 0 69
-31 104 -132 153 -80 39 -88 45 -88 71 0 50 22 67 83 67 40 0 61 -5 76 -19 21
-19 22 -19 61 19 22 22 40 42 40 47 0 4 -20 19 -45 34 -61 36 -150 42 -223 16z"/>
<path d="M16437 7280 c-222 -56 -335 -346 -196 -504 53 -59 110 -81 214 -80
81 0 188 25 201 46 7 11 53 258 54 286 0 9 -29 12 -115 12 l-114 0 -6 -37 c-4
-21 -9 -46 -12 -55 -4 -16 3 -18 53 -18 l57 0 -7 -31 c-3 -17 -6 -37 -6 -45 0
-46 -115 -62 -178 -24 -79 48 -81 199 -4 283 62 69 201 76 244 13 5 -7 26 7
54 36 55 54 53 62 -23 98 -52 24 -158 34 -216 20z"/>
<path d="M3327 7003 c-26 -148 -47 -274 -47 -280 0 -9 18 -13 59 -13 69 0 58
-24 97 218 16 94 31 172 34 172 3 0 21 -87 40 -193 l35 -192 50 -3 50 -2 105
196 c57 107 106 191 108 186 3 -9 -53 -328 -64 -364 -5 -16 2 -18 60 -18 53 0
66 3 70 18 3 9 23 123 46 252 22 129 43 247 46 263 l6 27 -100 0 -100 0 -94
-180 c-51 -99 -95 -176 -99 -172 -4 4 -18 77 -33 162 -15 85 -29 163 -32 173
-5 15 -18 17 -98 17 l-92 0 -47 -267z"/>
<path d="M4136 7243 c-3 -16 -24 -134 -46 -263 -23 -129 -43 -243 -46 -252 -5
-17 9 -18 189 -18 l195 0 6 38 c4 20 9 45 12 55 5 16 -6 17 -125 17 -76 0
-131 4 -131 10 0 5 5 32 11 60 l11 50 108 0 c60 0 111 3 113 8 3 4 8 28 12 55
l7 47 -111 0 -112 0 6 38 c13 77 5 72 130 72 63 0 116 3 118 8 3 4 8 28 12 55
l7 47 -180 0 -180 0 -6 -27z"/>
<path d="M4610 7259 c0 -6 -20 -124 -45 -263 -25 -140 -45 -261 -45 -270 0
-13 12 -16 63 -16 l62 0 29 173 c16 94 32 177 35 184 3 6 40 -71 81 -173 l75
-184 76 0 77 0 17 98 c10 53 32 179 49 280 l32 182 -66 0 -66 0 -29 -180 c-16
-99 -32 -180 -35 -180 -3 0 -39 81 -80 180 l-74 180 -78 0 c-49 0 -78 -4 -78
-11z"/>
<path d="M5187 7263 c-3 -5 -8 -29 -12 -55 l-7 -48 76 0 c61 0 76 -3 76 -15 0
-8 -16 -104 -35 -214 -19 -109 -35 -203 -35 -210 0 -7 23 -11 65 -11 36 0 65
2 65 5 0 11 71 411 76 428 5 14 17 17 79 17 41 0 76 3 78 8 3 4 8 28 12 55 l7
47 -220 0 c-122 0 -223 -3 -225 -7z"/>
<path d="M6336 7253 c-5 -17 -96 -527 -96 -538 0 -3 29 -5 64 -5 l64 0 12 73
c7 39 15 90 19 112 6 36 10 40 34 40 27 0 31 -7 75 -112 l47 -113 73 0 c39 0
72 2 72 5 0 3 -24 56 -53 118 l-54 113 46 25 c118 62 123 227 8 279 -34 16
-66 20 -174 20 -117 0 -132 -2 -137 -17z m203 -89 c40 -8 66 -44 57 -80 -8
-32 -58 -54 -124 -54 l-49 0 8 48 c17 91 17 92 48 92 16 0 43 -3 60 -6z"/>
<path d="M7335 7258 c-4 -14 -95 -528 -95 -541 0 -4 29 -7 64 -7 l65 0 10 53
c6 28 16 82 22 120 l11 67 109 0 c127 0 119 13 90 -142 l-18 -98 66 0 67 0 47
273 c26 149 48 275 47 280 0 4 -29 7 -64 7 l-64 0 -16 -87 c-9 -49 -16 -96
-16 -105 0 -16 -12 -18 -115 -18 -114 0 -115 0 -111 23 3 12 10 49 16 82 6 33
13 70 16 83 4 21 2 22 -61 22 -44 0 -67 -4 -70 -12z"/>
<path d="M7897 6998 c-26 -150 -47 -276 -47 -280 0 -5 29 -8 64 -8 62 0 65 1
70 28 3 15 24 131 46 257 22 127 43 240 45 253 5 21 3 22 -62 22 l-68 0 -48
-272z"/>
<path d="M8195 7248 c-3 -13 -23 -126 -45 -253 -22 -126 -43 -242 -46 -257
l-6 -28 66 0 c74 0 65 -10 86 105 21 114 14 105 75 105 168 0 265 69 265 189
0 71 -24 111 -82 140 -38 18 -62 21 -176 21 -128 0 -132 -1 -137 -22z m245
-103 c26 -23 26 -67 -1 -91 -26 -23 -149 -34 -149 -13 1 16 18 97 25 118 7 19
99 9 125 -14z"/>
<path d="M9382 7122 c-51 -81 -130 -207 -177 -279 l-85 -133 78 0 77 0 30 55
29 55 113 0 112 0 6 -43 c10 -66 14 -68 87 -65 l64 3 -52 275 c-29 151 -53
276 -54 278 0 1 -30 2 -67 2 l-68 -1 -93 -147z m157 -164 c1 -28 1 -28 -69
-28 -38 0 -70 2 -70 5 0 5 34 62 99 165 15 25 15 24 27 -45 7 -38 13 -82 13
-97z"/>
<path d="M10945 7248 c-6 -24 -95 -526 -95 -534 0 -2 87 -4 194 -4 l193 0 7
38 c12 77 20 72 -120 72 l-127 0 7 38 c3 20 6 47 6 60 0 22 2 22 114 22 126 0
118 -5 132 73 l6 37 -112 0 -113 0 7 38 c3 20 6 45 6 55 0 15 12 17 119 17
132 0 123 -5 137 73 l6 37 -181 0 c-179 0 -181 0 -186 -22z"/>
<path d="M12871 7220 c-6 -28 -11 -53 -11 -55 0 -3 36 -5 80 -5 78 0 80 -1 75
-22 -3 -13 -19 -104 -36 -203 -16 -99 -33 -190 -36 -202 -5 -22 -3 -23 60 -23
54 0 67 3 71 18 5 16 76 416 76 427 0 3 36 5 80 5 57 0 80 4 80 13 1 6 5 31 9
55 l8 42 -223 0 -222 0 -11 -50z"/>
<path d="M13385 7258 c-4 -13 -95 -531 -95 -542 0 -3 29 -6 64 -6 l63 0 20
113 c19 112 19 112 47 112 26 0 31 -7 74 -111 l45 -112 71 -3 c39 -2 103 -3
143 -1 l72 4 32 54 33 54 112 0 112 0 7 -55 6 -55 70 0 c38 0 69 3 69 8 0 4
-23 126 -50 272 -27 146 -50 268 -50 273 0 4 -31 7 -68 7 l-68 0 -129 -202
c-71 -112 -149 -234 -174 -273 l-44 -70 -52 110 -52 110 46 25 c115 63 121
222 11 278 -39 19 -59 22 -177 22 -98 0 -135 -3 -138 -12z m248 -119 c23 -28
22 -43 -7 -75 -20 -24 -32 -28 -89 -32 l-65 -4 9 48 c19 104 13 97 77 91 42
-4 62 -12 75 -28z m513 -111 c8 -46 14 -86 14 -90 0 -5 -31 -8 -70 -8 -38 0
-70 3 -70 6 0 11 104 183 108 179 3 -2 11 -42 18 -87z"/>
<path d="M14485 7258 c-5 -13 -95 -528 -95 -541 0 -4 29 -7 65 -7 59 0 65 2
70 23 2 12 23 128 45 257 22 129 43 245 45 258 5 21 3 22 -60 22 -44 0 -67 -4
-70 -12z"/>
<path d="M14735 7248 c-2 -13 -23 -129 -45 -258 -22 -129 -43 -245 -45 -257
-5 -22 -3 -23 59 -23 53 0 66 3 70 18 2 9 17 93 32 185 15 92 30 164 34 160 4
-4 40 -88 80 -186 l73 -178 76 3 75 3 48 265 c26 146 47 271 48 278 0 8 -19
12 -65 12 -36 0 -65 -3 -65 -7 0 -11 -61 -358 -64 -360 -1 -1 -36 80 -77 180
l-76 182 -76 3 c-73 3 -77 2 -82 -20z"/>
<path d="M15327 7003 c-26 -148 -47 -274 -47 -280 0 -9 20 -13 65 -13 36 0 65
3 65 6 0 8 88 512 94 537 4 15 -4 17 -63 17 l-67 0 -47 -267z"/>
<path d="M15626 7253 c-4 -16 -96 -528 -96 -539 0 -2 29 -4 64 -4 62 0 65 1
70 28 3 15 17 97 32 182 14 85 27 156 29 158 1 1 16 -30 32 -70 17 -40 52
-124 78 -185 l47 -113 73 0 c62 0 75 3 79 18 3 9 23 123 46 252 22 129 43 247
46 263 l6 27 -65 0 c-76 0 -64 24 -103 -207 -15 -90 -29 -162 -30 -160 -1 1
-36 83 -77 182 l-76 180 -75 3 c-64 2 -75 0 -80 -15z"/>
<path d="M8867 7022 c-22 -24 -21 -45 1 -65 24 -22 38 -21 62 3 21 21 18 46
-8 68 -22 17 -36 15 -55 -6z"/>
<path d="M12516 7012 c-13 -41 19 -71 55 -51 14 7 19 19 17 37 -2 22 -9 28
-35 30 -24 2 -33 -1 -37 -16z"/>
</g>
</svg>
